<svg xmlns="http://www.w3.org/2000/svg" width="99.993" height="100" viewBox="0 0 99.993 100"><defs><style>.a{fill:#fa4c4f;}.b{fill:#548bb7;}.c{fill:#5188b3;}.d{fill:#22426c;}.e{fill:#3b699b;}.f{fill:#f7c4b9;}.g{fill:#e4176b;}.h{fill:#eab9af;}.i{fill:#e1e0eb;}.j{fill:#3c699c;}.k{fill:#f44c4e;}.l{fill:#ee5456;}.m{fill:#fef3f3;}</style></defs><g transform="translate(-106.32 -229.771)"><path class="a" d="M263.169,528.091h-14.06c-.013-.755.718-.977,1.058-1.484.619-.6,1.23-1.21,1.823-1.839q12.825-12.829,25.658-25.648c.371-.371.731-1.087,1.285-.852s.287.993.29,1.52c.018,3.738.005,7.477.016,11.215a2.164,2.164,0,0,1-.6,1.68c-3.642,3.623-7.26,7.268-10.9,10.886a3.249,3.249,0,0,1-.452.371,18.126,18.126,0,0,0-2.8,2.847A11.952,11.952,0,0,1,263.169,528.091Z" transform="translate(-105.488 -198.323)"/><path class="b" d="M106.33,408.16v-8.984a23.679,23.679,0,0,1,2.252-2.492c1.157-1.142,2.3-2.3,3.454-3.446a2.107,2.107,0,0,1,1.115-.747c4.368-.05,8.73-.063,13.093,0,.41.094.554.306.3.692a5.3,5.3,0,0,1-.721.792q-6.756,6.755-13.514,13.511a2.558,2.558,0,0,1-1.241.906c-1.283.078-2.563.026-3.843.034A1.228,1.228,0,0,1,106.33,408.16Z" transform="translate(-0.007 -120.182)"/><path class="a" d="M278.555,509.208V521.9h-.2a1.358,1.358,0,0,1-.261-1.008q-.008-5.114,0-10.225a2.1,2.1,0,0,1,.086-.718,2.71,2.71,0,0,1-.58.679q-3.993,3.993-7.988,7.986a2.592,2.592,0,0,1-1.011.742,7.841,7.841,0,0,1-2.286.243c-.355-.044-.724-.115-.888-.475-.178-.392.2-.562.394-.792a5.153,5.153,0,0,0,.622-.729c.705-.671,1.421-1.332,2.111-2.019,3.041-3.033,6.068-6.079,9.122-9.1a2.064,2.064,0,0,0,.695-1.614c-.031-3.968-.016-7.939-.016-11.907v-.99c-.418.394-.692.643-.956.906Q264.841,505.439,252.278,518c-.274.274-.577.517-.87.776a4.808,4.808,0,0,1-2.283.2c-.319-.034-.695-.1-.828-.421-.146-.35.18-.583.392-.818a10.7,10.7,0,0,0,1.165-1.29,7.374,7.374,0,0,1,.729-.784q11.324-11.328,22.659-22.649c.353-.35.619-.865,1.236-.844.58.512.214.964-.157,1.322-2.537,2.461-5.01,4.984-7.513,7.479-2.524,2.518-5.034,5.052-7.552,7.576-2.126,2.132-4.248,4.276-6.405,6.377-.478.468-.925.967-1.455,1.528a1.287,1.287,0,0,0,1.442-.475c1.379-1.324,2.725-2.688,4.075-4.044q3.809-3.828,7.631-7.644c2.547-2.544,5.073-5.11,7.646-7.628,1.852-1.813,3.561-3.772,5.569-5.423.329-.272.415-.478.005-.742-.193-.125-.708-.17-.219-.575a1,1,0,0,1,1.089.2c.316.5.144,1.076.225,1.614,0,4.577.034,9.154-.013,13.73C278.772,506.71,279.13,508,278.555,509.208Z" transform="translate(-104.861 -192.133)"/><path class="a" d="M318.256,574.973c2.448-2.414,4.9-4.82,7.335-7.249.747-.747,1.424-1.56,2.134-2.343l.3.2v12.126h-12.5a.341.341,0,0,1,.1-.439A27.166,27.166,0,0,1,318.256,574.973Z" transform="translate(-154.523 -247.937)"/><path class="a" d="M308.975,597.682a28.749,28.749,0,0,1-2.735,2.735h-3.32c.306-.964,1.228-1.437,1.787-2.213a16.663,16.663,0,0,1,2.119-2.085c0,.41-.34.593-.562.857-.136.162-.413.285-.311.543s.387.3.64.347A19.655,19.655,0,0,0,308.975,597.682Z" transform="translate(-145.241 -270.646)"/><path class="c" d="M108.673,400.223a13.091,13.091,0,0,1-2.343,2.343V398.66a7.6,7.6,0,0,1,1.136-1.319c.172-.193.4-.473.731-.17a1.607,1.607,0,0,1,.081,1.134A2.235,2.235,0,0,0,108.673,400.223Z" transform="translate(-0.007 -123.571)"/><path class="a" d="M238.64,607.336c0-.392,0-.781,0-1.173.219-.358.41-.76.951-.658a6.441,6.441,0,0,0,1.883.2,1.333,1.333,0,0,1,1.071.269c-.392.455-.781.912-1.173,1.366Z" transform="translate(-97.754 -277.567)"/><path class="b" d="M108.078,394.507c-.7.392-.959,1.283-1.758,1.562V393.53l2.73.029A.9.9,0,0,1,108.078,394.507Z" transform="translate(0 -120.98)"/><path class="d" d="M247.655,465.668l-9.9-.063c-.541-.792-.217-1.688-.3-2.534a5.511,5.511,0,0,1,.029-1.058,1.278,1.278,0,0,1,.057-.311,2.3,2.3,0,0,1,.643-.839q3.911-3.915,7.829-7.827a2.217,2.217,0,0,1,.927-.684,4.694,4.694,0,0,1,2.061.076c.3.191.3.528.413.815a7.4,7.4,0,0,0,4.331,5.852.419.419,0,0,1,.089.259,14.312,14.312,0,0,1-2.077,2.26,23.817,23.817,0,0,0-2.56,2.748C248.778,464.908,248.512,465.637,247.655,465.668Z" transform="translate(-96.86 -164.379)"/><path class="a" d="M248.981,495.783a29.033,29.033,0,0,1,4.394-7.38c.2-.253.384-.517.575-.776q1.109-1.172,2.215-2.346a6.348,6.348,0,0,0,1.416-1.4,27.563,27.563,0,0,1,6.805-4.655c.436-.183.836-.491,1.353-.384.282.1.321.29.188.536a3.064,3.064,0,0,1-.567.664q-7.68,7.684-15.366,15.358c-.274.272-.5.718-1.021.546-.016-.005-.023-.05-.023-.076A.42.42,0,0,1,248.981,495.783Z" transform="translate(-105.37 -183.993)"/><path class="a" d="M244.667,595.621h-2.194a1.135,1.135,0,0,1-.93-.389c-.01-.031-.039-.073-.029-.089a13.605,13.605,0,0,1,3.362-3.649c.047-.031.123,0,.185.029-.243.9-1.2,1.233-1.622,2.022.94.695,2.019.023,2.988.321A9.492,9.492,0,0,1,244.667,595.621Z" transform="translate(-99.875 -267.218)"/><path class="b" d="M129.462,409.032l-3.712.01c.232-.266.449-.549.7-.8q6.9-6.912,13.814-13.822c.251-.251.478-.525.716-.789l3.707,0c.091.478-.293.692-.554.953q-6.865,6.885-13.741,13.759A4.52,4.52,0,0,1,129.462,409.032Z" transform="translate(-14.354 -121.053)"/><path class="b" d="M112.516,394.574a3.329,3.329,0,0,0,.972-.948l3.71-.005A52.889,52.889,0,0,1,113.1,397.7c-1-.18-.776-1-.705-1.588C112.459,395.6,112.5,395.088,112.516,394.574Z" transform="translate(-4.438 -121.046)"/><path class="a" d="M242.713,506.024a33.7,33.7,0,0,0-3.516,3.71c-.259.2-.52.389-.778.585a38.022,38.022,0,0,1,1.957-15.222l.768-1.583c.347.219.444-.144.59-.29q7.951-7.927,15.875-15.883c.141-.141.653-.243.266-.645.389-.742,1.129-.8,1.829-.946a1.779,1.779,0,0,1,.99.371,18.56,18.56,0,0,0,8.093,3.19.66.66,0,0,1,.329.285,4.077,4.077,0,0,1-1.991,2.215c-.29.259-.593.5-.867.773q-11.34,11.332-22.675,22.667C243.309,505.523,243,505.766,242.713,506.024Z" transform="translate(-97.532 -181.721)"/><path class="b" d="M139.96,409c.235-.266.457-.549.708-.8q6.9-6.908,13.8-13.809c.251-.251.478-.528.716-.794l10.559-.01c.533.925.206,1.925.261,2.892a1.67,1.67,0,0,1-.078.468,2.392,2.392,0,0,1-.65.836q-5.227,5.235-10.457,10.468a4.879,4.879,0,0,1-1,.765Q146.892,409,139.96,409Z" transform="translate(-24.852 -121.024)"/><path class="e" d="M244.776,393.49l8.6,0c.24.345.076.687-.037,1.008a17.375,17.375,0,0,0-.956,4.4c-.149.392-.1.826-.248,1.217a2.677,2.677,0,0,1-.609.75c-2.508,2.484-4.893,5.089-7.477,7.5a2.585,2.585,0,0,1-1.983.82c-1.068-.044-2.139-.008-3.211-.013a1.51,1.51,0,0,1-1.11-.243l-.008-.008a1.4,1.4,0,0,1-.3-1c.005-2.286-.057-4.574.031-6.857a1.876,1.876,0,0,1,.047-.319,2.074,2.074,0,0,1,.619-.854c1.9-1.907,3.811-3.806,5.708-5.718A6.28,6.28,0,0,1,244.776,393.49Z" transform="translate(-96.857 -120.95)"/><path class="f" d="M293.544,366.428a16.687,16.687,0,0,1,1.2-5.434c.052-.065.107-.131.159-.2a18.4,18.4,0,0,1,16.617-11.3c.091.478-.293.695-.554.959q-8.205,8.225-16.424,16.432c-.091.091.031-.013-.071.068-.269.212-.517.671-.87.457C293.3,367.23,293.458,366.773,293.544,366.428Z" transform="translate(-138.227 -88.452)"/><path class="e" d="M244.656,393.49c-2.252,2.437-4.608,4.768-7.025,7.04a4.5,4.5,0,0,1-.018-3.514c.008-.131.013-.261.021-.392a23.458,23.458,0,0,1,3.114-3.124Z" transform="translate(-96.737 -120.95)"/><path class="e" d="M241.779,393.53a12.863,12.863,0,0,1-3.114,3.124c0-1.037,0-2.074-.005-3.111Z" transform="translate(-97.768 -120.98)"/><path class="a" d="M282.335,492.27l1.954-2.158a.649.649,0,0,1,.974.039c.144.167.353.131.536.178.421.112.645.844.3,1.045-2.187,1.29-3.589,3.422-5.449,5.063-1.437,1.267-2.678,2.753-4.036,4.114-1.335,1.338-2.717,2.623-4.054,3.958-1.385,1.379-2.73,2.8-4.112,4.185-1.332,1.335-2.7,2.641-4.033,3.973-1,1-1.964,2.03-2.978,3.009-.538.52-.977,1.241-1.881,1.2-.214-.01-.483.076-.6-.2-.107-.261.084-.428.248-.583,1.993-1.85,3.877-3.806,5.771-5.755,1.714-1.763,3.545-3.417,5.29-5.151,1.358-1.353,2.646-2.78,4-4.135s2.769-2.654,4.133-4c.954-.943,1.878-1.92,2.79-2.9a7.46,7.46,0,0,1,.734-.622C282.308,493.194,282.666,492.831,282.335,492.27Z" transform="translate(-112.744 -192.182)"/><path class="f" d="M356.356,484.683l-.974-.039c-.073-.057-.146-.115-.222-.17.9-.525,1.4-1.526,2.362-1.964h.008a2.6,2.6,0,0,1,.193,1.923.631.631,0,0,1-.18.277C357.148,484.7,356.754,484.689,356.356,484.683Z" transform="translate(-183.835 -186.715)"/><path class="g" d="M395.824,502.23a.189.189,0,0,0-.157-.175,10.087,10.087,0,0,0-.567-2.926.354.354,0,0,0,.029-.037.343.343,0,0,0-.018-.264,36.747,36.747,0,0,0-4.182-9.736.219.219,0,0,0-.157-.037,8.134,8.134,0,0,0-1.309-1.889.554.554,0,0,0,.026-.146c-.021-.154-.172-.193-.256-.3a39.064,39.064,0,0,0-6.659-6.46c-.11-.133-.217-.274-.4-.206-.269-.81-1.113-.946-1.682-1.4a.3.3,0,0,0-.259.047.468.468,0,0,1-.191.008,22.709,22.709,0,0,0-5.246-2.578c-.455-.225-.729.133-1.034.342a18.069,18.069,0,0,1-7.725,3.043c-.319.112-.661.118-.98.23-.05.034-.1.07-.144.107a1.187,1.187,0,0,0-1.479.026l.023.06c-.005.5-.01,1.008-.016,1.51q0,6.932,0,13.866v3.516a1.329,1.329,0,0,0-.253.627c-.055,3.751-.013,7.505-.021,11.257a1.358,1.358,0,0,0,.272,1h32.612C396.031,508.559,396.154,505.388,395.824,502.23Z" transform="translate(-189.745 -181.955)"/><path class="b" d="M204.934,406.99q.008,1.756.018,3.514c-.005.068-.01.136-.013.2a4.037,4.037,0,0,1-.692.925q-3.3,3.284-6.58,6.583a4.669,4.669,0,0,1-.925.692c-1.029.11-2.09-.225-3.1.2.191.371.387.745-.185.969-.029-.324-.055-.648-.084-.972-.05-.183-.225-.131-.342-.185.533-.567,1.05-1.147,1.6-1.7q4.749-4.765,9.514-9.514C204.391,407.45,204.668,407.225,204.934,406.99Z" transform="translate(-64.058 -130.923)"/><path class="f" d="M330.883,444.173c-.742.711-1.2,1.766-2.362,1.964a16.75,16.75,0,0,1-7.753-2.785,3.838,3.838,0,0,0-1.421-.8.524.524,0,0,1-.212-.614,7.581,7.581,0,0,1,1.186-1.285q4.683-4.694,9.381-9.37c.311-.308.556-.867,1.183-.583Q330.882,437.434,330.883,444.173Z" transform="translate(-157.196 -148.38)"/><path class="f" d="M325.684,415.177q0,1.853,0,3.71c0,.131,0,.261-.005.392-.452.008-.664.381-.93.648q-5,4.992-10,9.992c-.251.251-.533.468-.8.7-1.066.026-1.4-.844-1.878-1.533a1.174,1.174,0,0,1,.491-1.006c4.224-4.255,8.493-8.464,12.7-12.735.112-.115.23-.23.418-.167Z" transform="translate(-151.989 -136.961)"/><path class="f" d="M312.255,376.889c-.692.726-1.371,1.468-2.079,2.179q-5.368,5.384-10.75,10.76c-.266.269-.632.483-.643.933-.206.089-.361-.021-.517-.133a26.669,26.669,0,0,1-2.7-3.811,22.212,22.212,0,0,1-1.539-4.295,1.593,1.593,0,0,1,.58-2.074q8.229-8.233,16.466-16.453c.308-.308.556-.867,1.183-.58Z" transform="translate(-138.568 -98.672)"/><path class="f" d="M310.977,353.076c-.488.018-.708.428-1,.716q-8.162,8.147-16.317,16.3c-.272.272-.583.509-.875.76a.223.223,0,0,1-.29-.112c-.18-1.066-.617-2.126-.086-3.213.1-.4-.057-.841.191-1.217.021.285.039.569.06.846.282.047.379-.157.509-.285q8.527-8.515,17.043-17.04c.136-.136.248-.3.371-.447l.4-.047-.013.052a4.043,4.043,0,0,1,.005,3.294C310.983,352.812,310.98,352.942,310.977,353.076Z" transform="translate(-137.291 -88.334)"/><path class="h" d="M381.623,366.208a.356.356,0,0,0-.065-.394,22.007,22.007,0,0,0-2.2-6.758c-.572-1.05-1.34-1.959-1.944-2.983a.218.218,0,0,0-.185-.034,8.635,8.635,0,0,0-1.638-1.672s0-.008,0-.01a.349.349,0,0,0-.118-.243,19.083,19.083,0,0,0-8.775-4.331c-.246-.091-.426-.4-.75-.23-.016.031-.031.063-.05.094-.248-.016-.5-.031-.742-.044-.363-.3-.784-.154-1.186-.159h0l-.786,0q0,1.575,0,3.153a3.63,3.63,0,0,0-.206.337,2.427,2.427,0,0,0-.073.478c-.029,4.269-.091,8.537.037,12.806a1.022,1.022,0,0,0,.125.308.993.993,0,0,0,.146.052l-.026.026a4.855,4.855,0,0,0-.047,3.579,1.557,1.557,0,0,0-.159.316,2.117,2.117,0,0,0-.073.481c-.031,4.271-.091,8.542.037,12.814a1.022,1.022,0,0,0,.125.308.992.992,0,0,0,.149.05.279.279,0,0,1-.031.026q0,1.07-.008,2.139l1.567.039c.329-.081.705.055,1-.214h0a10.829,10.829,0,0,0,3.213-.682,23.473,23.473,0,0,0,5.585-2.892c.465-.726,1.243-1.118,1.818-1.732a19.24,19.24,0,0,0,5.209-11.317.65.65,0,0,1-.068-.018q0-1.591.008-3.184C381.552,366.279,381.589,366.245,381.623,366.208Z" transform="translate(-189.5 -88.386)"/><path class="i" d="M173.695,260.686v-1.364q0-6.246,0-12.495c.53-1.108.238-2.278.248-3.422a.9.9,0,0,0-.253-.486q0-6.07-.008-12.14c0-.408.2-.99-.583-.935h-21.28l-10.93-.005q0,5.368,0,10.739h0c0,.131,0,.259-.005.389l-.008-.005q0,1.658.01,3.318a1.368,1.368,0,0,0-.225.434,1.808,1.808,0,0,0-.047.316c-.089,1.878-.042,3.759-.034,5.64.013,2.367-.091,4.734.068,7.1a.55.55,0,0,0,.24.384c0,.128,0,.259-.005.387l-.008-.005q0,1.658.01,3.318a1.538,1.538,0,0,0-.227.436,1.886,1.886,0,0,0-.047.316c-.089,2.955-.029,5.912-.029,8.869a1.583,1.583,0,0,0,.107.645l-.185-.013c-3.258-.034-6.52-.013-9.781,0-1.254-.044-2.508.024-3.759-.01-4.6-.008-9.19-.024-13.785.013-1.249.073-2.529-.266-3.743.282q-1.56.008-3.122.013v.2c.865.564,1.831.188,2.746.3,1.23-.084,2.492.253,3.691-.274l13.866.005a1.649,1.649,0,0,0,1.176.277c.857.031,1.716-.029,2.573,0,3.493.008,6.983.034,10.475-.018,1.058.042,2.119.008,3.177.008,1.3.039,2.61-.01,3.913.005,2.79-.021,5.577.094,8.367-.068a.661.661,0,0,0,.415-.269.6.6,0,0,0-.057-.165h.016c.486-.293.593-.836.839-1.283a18.791,18.791,0,0,1,3.986-5.128,19.159,19.159,0,0,1,11.821-4.7.569.569,0,0,0,.374-.238c-.005-.055-.008-.112-.01-.17l-.016-.018C173.713,260.835,173.724,260.778,173.695,260.686Zm-32.806-19.721Zm0,17.576Z" transform="translate(0 -0.051)"/><path class="e" d="M252.895,418.97q.114,1.638.225,3.278c.212.593-.251.888-.572,1.217-1.306,1.33-2.631,2.641-3.958,3.968.46.277,1.163-.24,1.385.528l-2.341-.005c-1.267.58-2.607.2-3.911.293-1.259.01-2.516.026-3.772.01a1.816,1.816,0,0,1-1.288-.293c0-.068,0-.136,0-.2,1.489,0,2.981-.031,4.467.008a1.914,1.914,0,0,0,1.533-.632c2.463-2.5,4.956-4.977,7.443-7.456C252.354,419.427,252.631,419.205,252.895,418.97Z" transform="translate(-97.768 -139.774)"/><path class="d" d="M243.686,453.365l3.905-.005c-2.061,2.092-4.117,4.193-6.189,6.277-.909.914-1.852,1.8-2.78,2.693l-.023-3.707c.008-.065.016-.131.026-.2a35.063,35.063,0,0,1,3.454-3.54C242.589,454.366,242.934,453.64,243.686,453.365Z" transform="translate(-97.724 -165.18)"/><path class="j" d="M276.831,437.223c-.53-.465-1.194-.026-1.821-.3a4.191,4.191,0,0,1,.99-1.113c1.131-1.152,2.281-2.286,3.42-3.43.248-.248.549-.468.556-.87a.5.5,0,0,0,.149.047,14.555,14.555,0,0,0,1.34,4.626c.133.308.447.585.269.985-1.288-.005-2.578.034-3.864-.037-.7-.039-.914.233-.873.857C276.766,437.772,276.862,437.484,276.831,437.223Z" transform="translate(-124.622 -149.038)"/><path class="d" d="M286.723,479.43l2.171.421A59.458,59.458,0,0,0,282,484.336c.055-.149.065-.337.167-.439C283.68,482.405,285.093,480.807,286.723,479.43Z" transform="translate(-129.786 -184.44)"/><path class="b" d="M207.24,429.41q3.977-4.22,8.2-8.2,0,4.1.005,8.2Q211.34,429.408,207.24,429.41Z" transform="translate(-74.556 -141.429)"/><path class="d" d="M243.738,453.38a34.884,34.884,0,0,1-5.063,5.065q0-2.531-.005-5.06Q241.205,453.381,243.738,453.38Z" transform="translate(-97.776 -165.195)"/><path class="e" d="M174.4,460.857a6.9,6.9,0,0,0,.2-3.412.876.876,0,0,0-.219-.3l0,0a.638.638,0,0,0,.212-.293,28.159,28.159,0,0,0,.018-4.877.981.981,0,0,0-.162-.332.91.91,0,0,0-.327-.18c-2.631-.191-5.264-.047-7.9-.073a9.361,9.361,0,0,0-3.085.209.534.534,0,0,0-.039.28h-.013c-.068.321.091.687-.185.969a10.521,10.521,0,0,1-.58,2.142c-.047.037-.094.073-.144.107a15.727,15.727,0,0,1-3.286,3.284l-.031.076a.766.766,0,0,0-.7-.037,20.725,20.725,0,0,1-3.294.588c-.071.042-.136.086-.2.131l-2.913-.026c0,.972.005,1.946.008,2.918a17.094,17.094,0,0,1-.065,1.9c-.12.852.219,1.157,1.029,1.058l.2-.063c.389.01.778.029,1.168.031q6.148.02,12.294.031a.373.373,0,0,0,.4,0l-.01-.068,3.521.063.2-.063H174.4q-.008-1.936-.018-3.869h0A1.88,1.88,0,0,1,174.4,460.857Z" transform="translate(-33.503 -163.706)"/><path class="a" d="M149.072,229.817c2.994-.031,5.987-.094,8.981.031a1.073,1.073,0,0,1,.269.9c-.005,1.324.05,2.652-.029,3.976a1.834,1.834,0,0,1-.627.961q-5.58,5.584-11.165,11.163a1.768,1.768,0,0,1-.695.52c-.381.115-.332-.17-.342-.392-.01-4.357.021-8.712-.016-13.064a.827.827,0,0,1,.327-.849C146.868,231.974,147.9,230.827,149.072,229.817Z" transform="translate(-28.886 -0.001)"/><path class="a" d="M144.381,233.625q0,6.936.005,13.872c.465.954.055,1.983.272,3.03.358-.1.549-.413.778-.643q5.1-5.09,10.2-10.188a3.5,3.5,0,0,1,.883-.758c.379-.185.452.034.436.355,0,4.067-.016,8.132.008,12.2a22.8,22.8,0,0,1,.12,3.681c-.12.444-.4.428-.737.251a2.682,2.682,0,0,1-1.241-1.3c-1.358-1.246-2.73-2.479-4.067-3.749-.415-.394-.619-.081-.875.138q-2.508,2.151-5.013,4.308c-.243.209-.488.413-.959.807v-4.047a4.659,4.659,0,0,1-.01-3.7c.089-4.624.073-9.248.008-13.869a1.072,1.072,0,0,1-.3-.839c.047-.893-.266-1.829.293-2.667.016-.183.034-.366.05-.549.042.008.084.016.125.026A5.053,5.053,0,0,1,144.381,233.625Z" transform="translate(-27.688 -0.14)"/><path class="k" d="M145.971,233.486q-.012-1.818-.021-3.636a25.477,25.477,0,0,1,3.516-.034c-.421.987-1.353,1.518-2.03,2.275C146.984,232.592,146.459,233.023,145.971,233.486Z" transform="translate(-29.277 0)"/><path class="l" d="M192.921,229.96q.027,2.426.052,4.851a4.748,4.748,0,0,1,.005,3.7q0,6.936-.005,13.872a3.97,3.97,0,0,1,.037,3.25c-.044.115.026-.034-.089.01-.17.068-.081-.11-.123-.17q-.016-8.288-.034-16.573a5.476,5.476,0,0,1,0-3.7q.012-2.614.026-5.225C192.835,229.976,192.877,229.965,192.921,229.96Z" transform="translate(-63.626 -0.14)"/><path class="m" d="M140.94,258.659a.838.838,0,0,0,.06-.131.367.367,0,0,0-.094-.376q0-6.736-.01-13.472h0c0-.068.005-.136.005-.2a4.47,4.47,0,0,0,.037-3.391c.021-.023.042-.044.063-.065a1.19,1.19,0,0,0,.112-.29,2.764,2.764,0,0,0,.057-.507c.081-3.127.024-6.257.026-9.386a1.4,1.4,0,0,0-.3-1h-6.643l-4.95.037c-.06,1.507-.008,3.017-.026,4.525a.914.914,0,0,0,.1.306l-.023.021q0,1.763.005,3.529a1.235,1.235,0,0,0-.235.569c-.042,4.36-.063,8.725.016,13.09a1,1,0,0,0,.24.366.168.168,0,0,1-.024.021c-.159,1.024.159,2.077-.175,3.09-.695-.206-1.076-.823-1.609-1.238a1.249,1.249,0,0,0-.01-.167,1.564,1.564,0,0,0-.583-.763c-1.074-.893-2.106-1.836-3.114-2.8a1.059,1.059,0,0,0-1.677-.071c-.726.65-1.479,1.27-2.215,1.91a39.692,39.692,0,0,1-3.148,2.625c-.282-1.173.144-2.3-.277-3.359l-.042-.018.005-.005q0-1.767-.008-3.532a1.281,1.281,0,0,0,.232-.575c.037-4.363.063-8.725-.018-13.09a1.041,1.041,0,0,0-.238-.35l.031-.026c0-.259,0-.515,0-.773v-2.678l.071-.068a.519.519,0,0,0-.021-.536l-10.225-.039v42.571c.909.507,1.883.2,2.832.222a1.263,1.263,0,0,0,.5-.238q1.755,0,3.511.005h0l13.856-.008h0l3.72.008h0l10.131-.01q.008-5.067.016-10.133c0-.068.005-.136.005-.2A4.5,4.5,0,0,0,140.94,258.659Z" transform="translate(-0.015 -0.051)"/><path class="a" d="M158.485,250.06q0,1.85,0,3.7-5.529,5.494-11.055,10.993c-.408.4-.773.849-1.16,1.277l-.227-.133v-3.548q4.761-4.722,9.522-9.446C156.529,251.946,157.511,251.008,158.485,250.06Z" transform="translate(-29.344 -14.989)"/></g></svg>